<?xml version="1.0" encoding="UTF-8" standalone="no"?>
<!-- Created with Inkscape (http://www.inkscape.org/) -->

<svg
   width="383.73062mm"
   height="172.31146mm"
   viewBox="0 0 383.73062 172.31146"
   version="1.1"
   id="svg5"
   inkscape:version="1.1.1 (3bf5ae0d25, 2021-09-20)"
   sodipodi:docname="Savoria (2022).svg"
   xmlns:inkscape="http://www.inkscape.org/namespaces/inkscape"
   xmlns:sodipodi="http://sodipodi.sourceforge.net/DTD/sodipodi-0.dtd"
   xmlns="http://www.w3.org/2000/svg"
   xmlns:svg="http://www.w3.org/2000/svg">
  <sodipodi:namedview
     id="namedview7"
     pagecolor="#ffffff"
     bordercolor="#666666"
     borderopacity="1.0"
     inkscape:pageshadow="2"
     inkscape:pageopacity="0.0"
     inkscape:pagecheckerboard="0"
     inkscape:document-units="mm"
     showgrid="false"
     inkscape:zoom="0.16693097"
     inkscape:cx="494.21627"
     inkscape:cy="2.9952501"
     inkscape:window-width="1366"
     inkscape:window-height="715"
     inkscape:window-x="-8"
     inkscape:window-y="-8"
     inkscape:window-maximized="1"
     inkscape:current-layer="layer1" />
  <defs
     id="defs2" />
  <g
     inkscape:label="Layer 1"
     inkscape:groupmode="layer"
     id="layer1"
     transform="translate(106.12734,-27.665483)">
    <path
       style="fill:#ec1b30;fill-opacity:1;stroke-width:0.264583"
       d="m 68.804406,199.86311 c -5.893593,-0.10547 -13.215937,-0.32325 -16.271875,-0.48397 -3.055937,-0.16072 -8.235156,-0.41443 -11.509375,-0.5638 -3.274219,-0.14937 -7.262813,-0.384 -8.863542,-0.5214 -1.600729,-0.1374 -4.99401,-0.37803 -7.540625,-0.53475 -2.546615,-0.15671 -6.237552,-0.45018 -8.202083,-0.65214 -1.964532,-0.20197 -4.643438,-0.44203 -5.953126,-0.53347 -1.309687,-0.0914 -2.7979683,-0.21677 -3.3072912,-0.27852 -0.509323,-0.0617 -2.7715105,-0.29578 -5.0270834,-0.52008 -9.1689451,-0.91178 -24.7333004,-2.82596 -32.4114584,-3.98613 -1.455209,-0.21988 -3.062553,-0.45222 -3.571876,-0.51631 -2.184164,-0.27483 -15.288464,-2.35342 -18.388542,-2.91677 -1.164166,-0.21155 -4.20026,-0.75368 -6.746875,-1.20473 -6.752735,-1.19604 -9.026467,-1.7138 -12.119986,-2.75992 -7.830849,-2.64811 -14.292828,-6.65655 -20.026889,-12.42292 -8.027736,-8.07297 -13.104799,-18.29228 -14.562989,-29.31294 -0.57023,-4.30962 -0.57112,-53.986879 -0.001,-58.309094 1.4213,-10.776156 6.453015,-20.909886 14.299446,-28.798657 4.205316,-4.22801 8.188571,-7.058525 13.758333,-9.776714 5.383972,-2.627519 8.725834,-3.583051 18.917709,-5.409102 1.673489,-0.299834 4.352396,-0.780648 5.953125,-1.068472 1.600729,-0.287825 3.56526,-0.599514 4.365625,-0.692645 0.800364,-0.09313 1.871927,-0.270391 2.38125,-0.393909 0.509323,-0.123521 2.235729,-0.417526 3.836458,-0.653349 1.60073,-0.235823 4.874948,-0.723749 7.276042,-1.084281 14.296523,-2.146668 33.8605369,-4.477554 47.492709,-5.658353 17.568418,-1.521748 28.644792,-2.188458 48.708374,-2.931855 11.371361,-0.421333 49.076519,-0.179702 60.035379,0.384733 14.982,0.771644 26.26244,1.50504 32.80833,2.133026 2.18282,0.20941 4.98078,0.455282 6.21771,0.546383 1.23693,0.0911 3.20146,0.274418 4.36563,0.407374 1.16416,0.132955 3.96213,0.42242 6.2177,0.643255 19.32597,1.892143 50.3898,6.436492 66.01355,9.657172 21.0312,4.33537 37.39676,22.018405 40.22521,43.463429 0.58089,4.404138 0.57179,52.949659 -0.0109,57.366519 -2.63644,19.98992 -17.02263,36.81673 -36.3076,42.46716 -3.23165,0.94687 -10.92404,2.43034 -21.23708,4.09558 -1.67349,0.27021 -4.94771,0.79878 -7.27604,1.17459 -2.32833,0.37582 -5.60255,0.86259 -7.27604,1.08173 -1.67349,0.21914 -3.2213,0.44681 -3.43958,0.50593 -0.21829,0.0591 -2.77813,0.41503 -5.68855,0.79089 -2.91041,0.37586 -6.55865,0.86057 -8.10717,1.07713 -1.54853,0.21656 -4.40603,0.56408 -6.35,0.77227 -1.94398,0.20818 -5.2609,0.5666 -7.37095,0.79649 -2.11005,0.22988 -5.4438,0.59262 -7.40833,0.80608 -1.96454,0.21345 -5.06016,0.50466 -6.87917,0.64711 -1.81901,0.14246 -5.27182,0.4355 -7.67292,0.65122 -8.79792,0.79039 -24.65179,1.69852 -39.42292,2.25818 -9.44437,0.35784 -31.200353,0.48565 -43.920829,0.25803 z"
       id="path1182" />
    <path
       id="path1222"
       style="fill:#ffffff;stroke-width:0.264583"
       d="m 213.64373,135.12175 c 0.5675,-2.583 1.08482,-4.84519 1.14956,-5.02709 0.09,-0.25278 1.69823,-0.33073 6.82432,-0.33073 h 6.70658 l 0.17311,0.99219 c 0.0952,0.54571 0.51734,2.75438 0.93806,4.90817 0.42069,2.15379 0.76488,3.9695 0.76488,4.0349 0,0.0654 4.10766,0.11891 9.12813,0.11891 5.02047,0 9.12812,-0.0653 9.12812,-0.14505 0,-0.14057 -3.74002,-13.15946 -5.16493,-17.97891 -0.38722,-1.30968 -0.91903,-3.15515 -1.18179,-4.10104 -0.26275,-0.94588 -1.187,-4.16057 -2.05388,-7.14375 -0.86688,-2.98318 -2.74981,-9.50306 -4.18433,-14.488621 l -2.60821,-9.064662 -11.77639,0.06883 -11.7764,0.06883 -0.4554,1.5875 c -0.25048,0.873125 -1.00689,3.611562 -1.68089,6.085416 -0.67403,2.473855 -1.37994,5.033698 -1.56869,5.688537 -0.95764,3.3223 -2.62417,9.33892 -4.5071,16.27188 -0.86611,3.18899 -2.3649,8.61766 -3.03152,10.98021 -0.26688,0.94588 -0.81039,2.91041 -1.20779,4.36562 -0.39741,1.45521 -1.00637,3.64142 -1.35324,4.85825 -0.34687,1.21682 -0.63069,2.37768 -0.63069,2.57968 0,0.30584 1.45002,0.36728 8.66833,0.36728 h 8.66834 z m 3.0856,-16.13959 c 0.23103,-0.99175 1.8035,-7.93762 3.03987,-13.4276 0.3605,-1.60073 0.9134,-3.98198 1.22868,-5.29167 0.64558,-2.681861 0.54959,-2.791867 1.50061,1.71979 1.29122,6.12548 2.99418,14.02722 3.34756,15.53251 0.62992,2.68323 1.03822,2.45916 -4.48122,2.45916 h -4.86664 z" />
    <path
       style="fill:#ffffff;stroke-width:0.264583"
       d="M 191.57108,113.35977 V 86.901395 h -8.99584 -8.99583 v 26.458335 26.45833 h 8.99583 8.99584 z"
       id="path1220" />
    <path
       id="path1216"
       style="fill:#ffffff;stroke-width:0.264583"
       d="m 137.06691,129.76393 v -10.05416 h 1.7122 1.71217 l 1.03857,2.18281 c 0.57123,1.20055 2.40278,4.98078 4.07013,8.40052 1.66738,3.41974 3.37133,6.96185 3.78659,7.87136 l 0.75504,1.65364 h 8.68733 8.68736 l -0.63794,-1.12448 c -0.35087,-0.61846 -1.80012,-3.38666 -3.22054,-6.15156 -5.76651,-11.22464 -7.10371,-13.79733 -7.60536,-14.63215 -0.2888,-0.48059 -0.48173,-0.89961 -0.42876,-0.93115 0.053,-0.0315 0.87024,-0.46105 1.81612,-0.95448 3.52169,-1.83711 5.82616,-4.2124 7.20561,-7.42701 0.82844,-1.93053 0.85157,-2.08849 0.85231,-5.82084 0,-3.739124 -0.0198,-3.880083 -0.81561,-5.556245 -2.64581,-5.573744 -8.52657,-9.124569 -16.63501,-10.044305 -1.30969,-0.148556 -8.12602,-0.271079 -15.1474,-0.272275 l -12.76615,-0.0022 v 26.458335 26.45833 h 8.46667 8.46667 z m 0,-26.09478 v -5.192702 l 4.57067,0.113199 c 4.03315,0.09989 4.71255,0.181869 5.77692,0.697124 1.98151,0.959239 2.45279,1.643779 2.57093,3.734289 0.12549,2.22071 -0.36079,3.39777 -1.7961,4.34761 -1.35319,0.89549 -4.65198,1.49318 -8.24124,1.49318 h -2.88118 z" />
    <path
       style="fill:#ffffff;stroke-width:0.264583"
       d="m 45.168547,138.82591 c 0.157282,-0.5457 2.216925,-7.18343 4.57699,-14.75052 5.527718,-17.72353 5.544857,-17.77857 5.97399,-19.18229 1.89225,-6.189674 7.019211,-22.650057 7.252126,-23.283331 0.133803,-0.363802 0.559229,-1.733021 0.945391,-3.042709 0.386162,-1.309687 1.095563,-3.631406 1.576446,-5.159375 0.480883,-1.527968 1.253725,-4.028281 1.717429,-5.55625 0.463703,-1.527968 0.949851,-3.046015 1.080328,-3.373437 l 0.237231,-0.595312 h -9.889324 -9.889323 l -3.849336,15.54427 c -2.117132,8.549349 -5.190641,20.985904 -6.83002,27.636784 -1.639377,6.65089 -3.005262,12.06795 -3.035298,12.03791 -0.03003,-0.03 -0.364865,-1.30448 -0.744066,-2.8321 -0.379204,-1.52762 -0.862015,-3.43233 -1.072917,-4.2327 -0.210902,-0.80036 -1.399472,-5.62239 -2.641264,-10.71562 -1.241796,-5.093232 -2.434014,-9.915264 -2.649371,-10.715628 -0.215361,-0.800365 -0.5167,-1.961224 -0.66964,-2.579688 l -0.278077,-1.124479 h -8.72105 c -4.796579,0 -8.7210532,0.07097 -8.7210532,0.157716 0,0.210362 0.6491812,2.481519 1.7699882,6.192284 0.505466,1.67349 1.211728,4.05474 1.569477,5.291667 0.959458,3.317378 2.937132,9.985528 4.080513,13.758328 0.551264,1.81902 1.558223,5.2123 2.237681,7.54063 0.679461,2.32833 1.62958,5.54302 2.111378,7.14375 0.481798,1.60073 1.491261,4.99401 2.243251,7.54062 0.751991,2.54662 1.415466,4.77904 1.474388,4.96094 0.08317,0.25676 2.315763,0.33073 9.98265,0.33073 h 9.87552 z"
       id="path1214" />
    <path
       id="path1210"
       style="fill:#ffffff;stroke-width:0.264583"
       d="m -18.009922,138.82591 c 0.13969,-0.5457 0.644864,-2.80789 1.122606,-5.02708 l 0.868625,-4.0349 h 6.6825997 6.6825998 l 0.2961852,1.09995 c 0.1629013,0.60497 0.4102312,1.80811 0.549619,2.67363 0.1393904,0.86553 0.4294796,2.36485 0.6446467,3.33183 0.21516711,0.96697 0.45094526,2.02603 0.52395174,2.35345 l 0.13274146,0.59531 H 8.59279 17.691927 l -0.345011,-1.25677 c -0.189757,-0.69122 -0.905454,-3.16177 -1.590437,-5.4901 -0.684985,-2.32834 -1.455941,-5.00724 -1.713235,-5.95313 -0.257297,-0.94588 -1.033582,-3.62479 -1.725081,-5.95312 -0.691499,-2.32834 -1.347179,-4.59052 -1.457066,-5.02709 -0.109886,-0.43656 -0.643318,-2.28203 -1.1853992,-4.10104 C 9.1336142,110.2178 8.530515,108.13421 8.3354748,107.4066 8.1404345,106.679 7.4932716,104.41681 6.8973347,102.37952 6.3013977,100.34223 5.1603874,96.413166 4.3617585,93.64827 3.5631295,90.883374 2.784437,88.234234 2.6313279,87.761291 L 2.3529518,86.901395 h -11.7483998 -11.7484 l -0.160686,0.727604 c -0.08838,0.400183 -0.382903,1.441979 -0.6545,2.315104 -0.271598,0.873125 -0.783834,2.718594 -1.138304,4.101042 -0.35447,1.382448 -0.82813,3.168385 -1.052581,3.96875 -0.224452,0.800365 -0.953664,3.419735 -1.620475,5.820835 -0.666811,2.40109 -1.379622,4.96094 -1.584026,5.68854 -0.204404,0.7276 -0.928214,3.34698 -1.608471,5.82083 -0.680255,2.47386 -1.749748,6.34339 -2.376652,8.59896 -0.626904,2.25557 -1.196864,4.33917 -1.266576,4.63021 -0.121502,0.50723 -2.711905,9.82507 -2.997385,10.78177 -0.12963,0.43441 0.401724,0.46302 8.600715,0.46302 h 8.738881 z m 3.73516,-18.92171 c 0,-0.0386 0.36526,-1.67569 0.811692,-3.63802 0.875554,-3.8486 1.144135,-5.05278 2.905802,-13.02823 0.6443188,-2.91697 1.2404886,-5.073512 1.3489678,-4.87967 0.1069128,0.191045 0.4381659,1.531175 0.7361184,2.97807 0.29795,1.44689 0.8416264,3.99993 1.2081696,5.67342 0.3665432,1.67349 0.8955617,4.11427 1.175594,5.42396 0.280035,1.30968 0.7553246,3.50394 1.0561982,4.87612 0.3008736,1.37218 0.5470419,2.53304 0.5470419,2.57969 0,0.0466 -2.2026563,0.0848 -4.8947917,0.0848 -2.6921352,0 -4.8947922,-0.0316 -4.8947922,-0.0701 z" />
    <path
       id="path1206"
       style="fill:#ffffff;stroke-width:0.264583"
       d="m 93.278365,140.48489 c 6.19192,-1.20267 10.920085,-3.73605 14.976715,-8.02458 2.42415,-2.56273 3.50462,-4.19806 4.88844,-7.39883 1.76747,-4.08812 2.05098,-5.67183 2.07114,-11.56943 0.0162,-4.74545 -0.0463,-5.53746 -0.6059,-7.67291 C 111.7639,94.962667 103.21021,87.505034 91.988241,86.097147 88.261185,85.629556 82.031806,85.897301 79.123157,86.650102 68.842276,89.31094 61.773557,96.566651 59.49751,106.79491 c -0.481534,2.16395 -0.606271,3.52198 -0.602998,6.56481 0.0075,7.00747 1.619109,12.12194 5.401161,17.1411 4.206775,5.58281 10.256955,9.02174 18.002484,10.23264 2.990151,0.46746 7.861395,0.35717 10.980208,-0.24861 z m -8.666184,-13.90178 c -5.789049,-1.46258 -9.165844,-8.0116 -8.155085,-15.81612 0.619649,-4.7846 2.652958,-8.19625 6.057948,-10.16451 1.460883,-0.84447 1.587978,-0.868761 4.545613,-0.868761 2.800239,0 3.148129,0.0568 4.365625,0.712801 5.431549,2.92656 8.024095,10.7671 5.939732,17.96332 -1.019009,3.51811 -3.282591,6.35006 -6.06556,7.58857 -1.638258,0.72908 -4.965499,1.01995 -6.688273,0.5847 z" />
    <path
       style="fill:#ffffff;stroke-width:0.264583"
       d="m -51.238662,140.46739 c 2.488747,-0.43499 5.581086,-1.51692 7.426227,-2.59825 3.048876,-1.78676 5.528119,-4.92122 6.691931,-8.46048 0.624549,-1.89931 0.711095,-2.58693 0.721212,-5.73018 0.01029,-3.20173 -0.05954,-3.76595 -0.67397,-5.44471 -2.086499,-5.70074 -6.900553,-9.56585 -14.772333,-11.86045 -6.410931,-1.86876 -8.166111,-2.66439 -8.905188,-4.03677 -0.437639,-0.81265 -0.445661,-0.96383 -0.08581,-1.61736 0.218329,-0.39651 0.931633,-0.998277 1.585122,-1.337267 1.091567,-0.566237 1.424778,-0.605668 4.098581,-0.484992 3.442446,0.155366 9.034732,1.318309 12.071982,2.510419 l 0.694899,0.27274 1.241185,-3.486741 c 0.682651,-1.917711 1.590339,-4.419653 2.01708,-5.559872 0.426744,-1.14022 0.775896,-2.28468 0.775896,-2.543249 0,-0.581097 -4.300601,-2.352363 -7.672917,-3.160202 -5.391148,-1.291453 -13.813571,-1.439133 -18.123959,-0.317789 -3.433265,0.89316 -6.260002,2.438043 -8.452913,4.619734 -3.070532,3.054815 -4.379379,6.47877 -4.379379,11.456509 0,4.66623 1.25039,7.71262 4.496483,10.95503 2.736392,2.73328 4.47208,3.6457 10.849351,5.70332 5.931588,1.91382 8.118557,2.87959 8.968952,3.96069 1.092758,1.38922 0.519075,2.96313 -1.397238,3.83336 -0.886685,0.40266 -1.744663,0.49581 -4.610418,0.50054 -3.926708,0.006 -7.166983,-0.5276 -11.391366,-1.87757 -1.362318,-0.43536 -2.537915,-0.73058 -2.612437,-0.65606 -0.378852,0.37885 -3.847651,11.4913 -3.70395,11.86577 0.15439,0.40233 3.524681,1.80241 6.147499,2.55378 1.783609,0.51095 5.857271,1.21889 8.334375,1.44837 2.149586,0.19914 8.28797,-0.0935 10.6611,-0.50832 z"
       id="path1204" />
  </g>
</svg>
